<svg xmlns="http://www.w3.org/2000/svg" viewBox="0 0 157.58 165.82646"><defs><style>.cls-1{fill:#417e89;}</style></defs><title>Asset 1</title><g id="Layer_2" data-name="Layer 2"><g id="Layer_1-2" data-name="Layer 1"><path class="cls-1" d="M157.57969,82.93106a81.27085,81.27085,0,0,1-66.76486,80.036A77.95365,77.95365,0,0,1,76.771,164.29716c-3.33991-.01941-5.26162-1.94986-5.00943-4.85525.21392-2.46459,1.73549-3.98146,4.48219-4.10455a86.65284,86.65284,0,0,0,16.49991-1.97457,75.49163,75.49163,0,0,0,23.11765-9.92855c1.11436-.71183,1.65754-1.12009.42812-2.42732-3.20917-3.41234-2.96572-8.52083.33243-12.22907,7.944-8.93172,13.7322-19.05156,16.15067-30.82127,4.60676-22.41926-.379-42.50835-15.33073-59.94079-2.95263-3.44253-4.48118-6.92829-2.4746-11.31972a7.68713,7.68713,0,0,1,.73361-1.27772c1.59165-2.22127,1.60267-2.22466-.804-3.70556a71.70724,71.70724,0,0,0-37.26913-11.146C73.65741,10.5176,71.67912,8.86036,71.727,5.831c.03409-2.15518,1.1971-3.53816,3.503-4.103,3.1584-.77367,6.342-.18331,9.441.1978,28.81275,3.54337,50.07132,18.31772,63.93885,43.69665C154.71281,56.79142,157.59282,69.65062,157.57969,82.93106Z"/><path class="cls-1" d="M47.24054,149.13745c-7.8789,0-15.75816.04494-23.63658-.01642-4.91511-.03827-8.71035-2.18475-10.886-6.65488-2.2051-4.53061-1.54438-8.89934,1.4474-12.87892a11.07782,11.07782,0,0,1,9.153-4.46856q23.53015-.10329,47.06112.041c5.2164.03071,9.25082,2.31192,11.3415,7.26982a11.36868,11.36868,0,0,1-2.09565,12.74482,11.172,11.172,0,0,1-8.5383,3.96525c-7.94863.04106-15.89762.01308-23.84646.01309Z"/><path class="cls-1" d="M47.24686,40.62443c-7.809-.0022-15.61857.05324-23.42689-.02035-5.87306-.05534-10.4597-3.4591-11.90487-8.62376A11.94866,11.94866,0,0,1,23.52428,16.637c15.54691-.10845,31.09506-.04667,46.64267-.03306a16.106,16.106,0,0,1,2.71445.31793,11.92429,11.92429,0,0,1-1.57587,23.67032C63.28823,40.73258,55.26662,40.62662,47.24686,40.62443Z"/><path class="cls-1" d="M46.97222,11.951c-4.49775,0-8.99564.02358-13.49319-.00707-3.96158-.027-6.49871-2.33507-6.53728-5.87056-.03867-3.54386,2.44212-6.026,6.367-6.04708q13.91336-.0747,27.82752.0694c3.92246.042,6.13585,2.35264,6.10573,6.00581-.0282,3.4211-2.58081,5.81728-6.35485,5.8527-4.63792.04352-9.27655.01039-13.91488.01039Z"/><path class="cls-1" d="M47.25121,153.7694c4.497.00121,8.99407-.01331,13.491.00562,3.85058.0162,6.44449,2.40421,6.50508,5.94155.05885,3.43713-2.38263,5.99918-6.17268,6.03845q-13.91092.14415-27.82419-.00115c-3.86007-.03994-6.434-2.6847-6.35377-6.11136.08-3.41958,2.80447-5.84769,6.65282-5.8685C38.1166,153.74932,42.684,153.76819,47.25121,153.7694Z"/><path class="cls-1" d="M46.83822,82.94947q0-16.56816.01219-33.13631a10.03769,10.03769,0,0,1,.29654-2.65474A2.43241,2.43241,0,0,1,49.74741,45.349a2.4,2.4,0,0,1,2.53186,1.89379A10.58042,10.58042,0,0,1,52.529,49.908q.01886,33.01359.00715,66.02719a10.36312,10.36312,0,0,1-.0845,1.95682,2.651,2.651,0,0,1-2.681,2.40657,2.71125,2.71125,0,0,1-2.85766-2.498,13.22261,13.22261,0,0,1-.05766-1.9603q-.00417-16.4454-.002-32.89083Z"/><path class="cls-1" d="M33.687,82.96851q-.00006,10.66221-.00091,21.32438c-.00013.65353.01865,1.30917-.02535,1.96018-.11692,1.72934-1.07426,2.8256-2.78357,2.79111a2.641,2.641,0,0,1-2.74692-2.84215c-.05077-3.51249-.02008-7.02619-.0203-10.53939q-.00113-17.15753.00034-34.31508c.00006-.65354-.0364-1.31141.02418-1.95979.15842-1.69585,1.03756-2.75145,2.81342-2.75786,1.82214-.00659,2.67339,1.09021,2.68576,2.8094.043,5.96372.04036,11.9278.05278,17.89173C33.69032,79.2102,33.687,81.08936,33.687,82.96851Z"/><path class="cls-1" d="M65.72181,82.68868q0-10.662.00079-21.324c.00014-.6534-.01-1.30789.0225-1.96.08609-1.72652.93022-2.79791,2.72817-2.77828a2.60178,2.60178,0,0,1,2.78809,2.77129c.08344,2.20281.02654,4.411.02666,6.61692q.001,19.11807.00008,38.23612c0,.57191.00257,1.14389-.00581,1.71569-.02706,1.84569-.97033,3.03247-2.79329,3.053-1.86381.021-2.75292-1.20938-2.75606-3.046q-.01339-7.84326-.01091-15.68653Q65.72032,86.4878,65.72181,82.68868Z"/><path class="cls-1" d="M61.93111,82.68714c-.00059,4.97651-.0159,9.95311.007,14.92952.00908,1.97337-.37981,3.66074-2.74008,3.86307-1.90034.1629-2.93067-1.21471-2.93553-3.884q-.0269-14.80713-.00063-29.61432c.005-2.6048,1.1303-4.11645,2.96727-3.90048,2.28512.26863,2.7305,1.92759,2.715,3.92148C61.90607,72.89708,61.93171,77.7922,61.93111,82.68714Z"/><path class="cls-1" d="M37.466,82.76566q-.003-6.87284-.00165-13.74567c.00008-.57271-.016-1.1464.011-1.718.08833-1.87023.87631-3.23606,2.9185-3.20414,1.932.03019,2.719,1.41674,2.7253,3.14213q.05655,15.58614-.004,31.1726c-.00689,1.7417-.80517,3.03859-2.78447,3.04211-2.11918.00377-2.83874-1.3777-2.85091-3.22529C37.44586,93.07505,37.468,87.92028,37.466,82.76566Z"/><path class="cls-1" d="M24.27106,82.77194c0,3.262-.03523,6.52461.01331,9.78593.02878,1.93384-.741,3.28963-2.72664,3.32041-1.98724.03081-2.82083-1.30267-2.81582-3.23624q.02569-9.90842.01038-19.81694c-.00027-1.83756.85836-3.04462,2.72478-3.06376,1.84627-.019,2.79511,1.08856,2.7864,2.97987-.01539,3.34353-.00431,6.68714-.00431,10.03073Z"/><path class="cls-1" d="M75.1331,82.70267c-.00193-3.26048.01592-6.52109-.009-9.78138-.01387-1.81894.77383-3.14391,2.60826-3.19019,1.90987-.04819,2.92055,1.17034,2.91708,3.14974q-.01735,9.90376-.0036,19.80755c.00171,1.9461-.92143,3.23455-2.8761,3.188-1.82216-.04342-2.66339-1.298-2.64444-3.14787C75.15957,89.38688,75.135,86.04465,75.1331,82.70267Z"/><path class="cls-1" d="M9.39091,82.72693c-.003-1.4648-.02614-2.93007.00287-4.39429.036-1.81815.90964-2.98873,2.79994-2.95859A2.56234,2.56234,0,0,1,14.878,78.2133c.04322,3.01032.0315,6.02173.01337,9.03252-.0111,1.84381-.91472,2.95945-2.81587,2.934-1.94022-.0259-2.68308-1.252-2.6818-3.05855Q9.39526,84.92412,9.39091,82.72693Z"/><path class="cls-1" d="M84.51482,82.67063c.0019-1.54682-.0414-3.09519.01375-4.64a2.72141,2.72141,0,0,1,5.44135.00045c.07728,3.17311.0529,6.35023-.00208,9.5244a2.42615,2.42615,0,0,1-2.584,2.6412A2.5245,2.5245,0,0,1,84.526,87.55511C84.464,85.92914,84.5129,84.299,84.51482,82.67063Z"/><path class="cls-1" d="M99.32856,82.85476c0,1.06084.06288,2.1263-.01465,3.18144a2.72117,2.72117,0,0,1-5.37721.03431,41.64617,41.64617,0,0,1,.02839-6.60264,2.71685,2.71685,0,0,1,5.365.205c.099,1.05187.01907,2.12061.01907,3.18183Z"/><path class="cls-1" d="M.02461,82.51252c0-.897-.06371-1.7996.01388-2.68986A2.52644,2.52644,0,0,1,2.7488,77.27122a2.42836,2.42836,0,0,1,2.697,2.2884,38.74172,38.74172,0,0,1-.02352,6.5924,2.3816,2.3816,0,0,1-2.76043,2.18712A2.45891,2.45891,0,0,1,.06966,85.9347c-.07482-1.13609-.0146-2.28109-.0146-3.42212Z"/></g></g></svg>