<svg xmlns="http://www.w3.org/2000/svg" viewBox="0 0 10 10.52332"><defs><style>.cls-1{fill:#417e89;}</style></defs><title>Asset 2</title><g id="Layer_2" data-name="Layer 2"><g id="Layer_1-2" data-name="Layer 1"><path class="cls-1" d="M10,5.26279a5.15743,5.15743,0,0,1-4.23689,5.07907,4.94707,4.94707,0,0,1-.89121.08441c-.21195-.00123-.3339-.12374-.3179-.30811a.268.268,0,0,1,.28444-.26048,5.49874,5.49874,0,0,0,1.04708-.1253,4.79072,4.79072,0,0,0,1.467-.63007c.07072-.04517.10519-.07108.02717-.154a.5643.5643,0,0,1,.0211-.77606A4.19732,4.19732,0,0,0,8.42573,6.21631a4.2519,4.2519,0,0,0-.97289-3.80383.62272.62272,0,0,1-.157-.71835A.4879.4879,0,0,1,7.34236,1.613c.101-.141.1017-.14117-.051-.23515A4.55055,4.55055,0,0,0,4.92624.67057C4.67429.66745,4.54874.56228,4.55178.37A.25567.25567,0,0,1,4.77409.10966a1.64581,1.64581,0,0,1,.59912.01255,5.1095,5.1095,0,0,1,4.05755,2.773A4.91217,4.91217,0,0,1,10,5.26279Z"/><path class="cls-1" d="M2.99788,9.46424c-.5,0-1,.00285-1.5-.001a.723.723,0,0,1-.69082-.42232.742.742,0,0,1,.09185-.8173A.703.703,0,0,1,1.47978,7.94q1.49322-.00655,2.98649.0026A.76179.76179,0,0,1,5.053,9.21273a.709.709,0,0,1-.54184.25164c-.50442.0026-1.00886.00083-1.51329.00083Z"/><path class="cls-1" d="M2.99828,2.578c-.49556-.00014-.99115.00338-1.48667-.00129a.7607.7607,0,1,1-.01876-1.52095c.9866-.00688,1.97328-.003,2.95993-.0021a1.02137,1.02137,0,0,1,.17226.02018.75671.75671,0,0,1-.1,1.50211C4.01626,2.58488,3.50721,2.57816,2.99828,2.578Z"/><path class="cls-1" d="M2.98085.75841C2.69542.75841,2.41.7599,2.12457.758A.37389.37389,0,0,1,1.70972.38541.37125.37125,0,0,1,2.11377.00167Q2.9967-.00307,3.8797.00607A.35372.35372,0,0,1,4.26716.3872a.37349.37349,0,0,1-.40327.37141c-.29433.00276-.58869.00066-.883.00066Z"/><path class="cls-1" d="M2.99855,9.75818c.28538.00008.57077-.00084.85614.00036a.37951.37951,0,0,1,.41281.37705.36875.36875,0,0,1-.39172.3832q-.88278.00914-1.76571-.00008a.379.379,0,0,1-.40321-.38782A.38964.38964,0,0,1,2.129,9.75847C2.41887,9.75691,2.70872,9.7581,2.99855,9.75818Z"/><path class="cls-1" d="M2.97235,5.264q0-1.05141.00077-2.10283a.6367.6367,0,0,1,.01882-.16846.15434.15434,0,0,1,.165-.11483.1523.1523,0,0,1,.16067.12018.67119.67119,0,0,1,.01585.16913q.0012,2.095.00046,4.19008a.65787.65787,0,0,1-.00537.12418.16823.16823,0,0,1-.17014.15272.17206.17206,0,0,1-.18134-.15852.83924.83924,0,0,1-.00366-.1244Q2.97316,6.30759,2.9733,5.264Z"/><path class="cls-1" d="M2.13777,5.26517q0,.67662-.00006,1.35324c0,.04147.00119.08308-.00161.12439a.17552.17552,0,1,1-.351-.00324c-.00322-.2229-.00127-.44588-.00129-.66883q-.00007-1.08881,0-2.17762c0-.04148-.00231-.08323.00154-.12437a.16821.16821,0,0,1,.17854-.175.15754.15754,0,0,1,.17043.17829c.00273.37846.00257.75693.00335,1.1354C2.138,5.02667,2.13777,5.14592,2.13777,5.26517Z"/><path class="cls-1" d="M4.17069,5.24741q0-.67661.00006-1.35322c0-.04146-.00064-.083.00142-.12438.00547-.10956.059-.17755.17313-.17631a.16511.16511,0,0,1,.17693.17587c.0053.13979.00169.27992.0017.41991q.00006,1.21323,0,2.42645c0,.0363.00016.0726-.00037.10888a.172.172,0,0,1-.17726.19374c-.11828.00133-.1747-.07674-.1749-.19329q-.00086-.49775-.00069-.99547Q4.17061,5.4885,4.17069,5.24741Z"/><path class="cls-1" d="M3.93014,5.24731c0,.31581-.001.63162.00044.94743.00058.12523-.0241.23231-.17388.24515-.1206.01033-.186-.07709-.18629-.24648q-.00171-.93966,0-1.87932c.00032-.1653.07173-.26123.1883-.24752.145.017.17328.12232.17229.24885C3.92855,4.626,3.93018,4.93668,3.93014,5.24731Z"/><path class="cls-1" d="M2.37759,5.25229Q2.3774,4.81615,2.37748,4.38c0-.03635-.001-.07275.0007-.109.00561-.11869.05561-.20536.18521-.20334.1226.00192.17255.08991.173.1994q.00358.9891-.00026,1.97821c-.00044.11053-.0511.19283-.1767.193-.13448.00024-.18015-.08743-.18092-.20468C2.37631,5.90653,2.37771,5.57941,2.37759,5.25229Z"/><path class="cls-1" d="M1.54024,5.25269c0,.207-.00224.414.00084.621.00183.12272-.047.20876-.173.21071s-.179-.08267-.17869-.20537Q1.191,5.25027,1.19,4.62147c0-.11661.05447-.19321.17291-.19443.11716-.0012.17738.06908.17683.1891-.001.21218-.00028.42437-.00028.63655Z"/><path class="cls-1" d="M4.76793,5.2483c-.00012-.20691.001-.41383-.00056-.62073-.00089-.11543.0491-.19951.16552-.20245.1212-.003.18533.07427.18511.19989q-.00109.62848-.00023,1.257c.00011.1235-.05847.20526-.18251.20231-.11564-.00276-.169-.08238-.16782-.19977C4.76961,5.67248,4.76806,5.46038,4.76793,5.2483Z"/><path class="cls-1" d="M.596,5.24984c-.0002-.093-.00166-.18594.00018-.27886.00228-.11538.05772-.18967.17768-.18776a.16262.16262,0,0,1,.17035.18018c.00274.191.002.38214.00084.5732-.0007.117-.058.18781-.17869.1862C.64318,5.72116.596,5.64334.59612,5.5287Q.59623,5.38928.596,5.24984Z"/><path class="cls-1" d="M5.3633,5.24626c.00012-.09816-.00263-.19642.00087-.29445a.1727.1727,0,0,1,.34531,0c.0049.20136.00335.403-.00014.60441a.154.154,0,0,1-.164.16761A.1602.1602,0,0,1,5.364,5.55623C5.36007,5.45305,5.36317,5.3496,5.3633,5.24626Z"/><path class="cls-1" d="M6.30337,5.258c0,.06732.004.13493-.00093.20189a.17268.17268,0,0,1-.34123.00218,2.64236,2.64236,0,0,1,.0018-.419.17241.17241,0,0,1,.34046.013c.00629.06675.00121.13457.00121.20191Z"/><path class="cls-1" d="M.00156,5.23623c0-.05692-.004-.1142.00088-.1707a.16033.16033,0,0,1,.172-.16191.1541.1541,0,0,1,.17115.14522,2.45879,2.45879,0,0,1-.00149.41835.15114.15114,0,0,1-.17518.1388.156.156,0,0,1-.1645-.15259c-.00475-.07209-.00093-.14476-.00093-.21717Z"/></g></g></svg>